<?xml version="1.0" encoding="utf-8"?>
<!-- Generator: Adobe Illustrator 21.1.0, SVG Export Plug-In . SVG Version: 6.00 Build 0)  -->
<svg version="1.1" id="Layer_1" xmlns="http://www.w3.org/2000/svg" xmlns:xlink="http://www.w3.org/1999/xlink" x="0px" y="0px"
	 viewBox="0 0 30 50" style="enable-background:new 0 0 30 50;" xml:space="preserve">
<style type="text/css">
	.st0{fill:#EE5242;}
	.st1{fill:#FFFFFF;}
</style>
<path class="st0" d="M15,44.7c1.4,0,2.5,1.1,2.5,2.5s-1.1,2.5-2.5,2.5s-2.5-1.1-2.5-2.5S13.6,44.7,15,44.7z"/>
<path class="st0" d="M14.7,40.4c-0.2-0.4-0.3-0.4-0.5-0.8C10.9,33.3,0,22.4,0,15.2c0-8.3,6.7-15,15-15l0,0c8.3,0,15,6.7,15,15
	c0,7.2-10.9,18.1-14.1,24.4c-0.2,0.4-0.3,0.4-0.5,0.8C15.2,40.7,14.8,40.7,14.7,40.4z"/>
<path class="st1" d="M14.7,11.8c0.8,0,1.5-0.7,1.5-1.5s-0.7-1.5-1.5-1.5s-1.5,0.7-1.5,1.5S13.9,11.8,14.7,11.8z M17.1,13.8
	c-0.1-0.8-0.8-1.5-1.5-1.5c-0.1,0-0.2,0.1-0.3,0.2l-0.5,1.2l-0.5-1.2c0-0.1-0.2-0.2-0.3-0.2c-0.8,0-1.4,0.6-1.5,1.5L12,17.4
	c0,0.3,0.1,0.6,0.2,0.8c0.2,0.2,0.4,0.3,0.6,0.3l0.3,4.5c0,0.2,0.1,0.3,0.3,0.3H16c0.2,0,0.3-0.1,0.3-0.3l0.3-4.5
	c0.2,0,0.5-0.1,0.6-0.3c0.2-0.2,0.3-0.5,0.2-0.8L17.1,13.8z"/>
</svg>
