<?xml version="1.0" encoding="utf-8"?>
<!-- Generator: Adobe Illustrator 21.1.0, SVG Export Plug-In . SVG Version: 6.00 Build 0)  -->
<svg version="1.1" id="Layer_1" xmlns="http://www.w3.org/2000/svg" xmlns:xlink="http://www.w3.org/1999/xlink" x="0px" y="0px"
	 viewBox="0 0 40 40" style="enable-background:new 0 0 40 40;" xml:space="preserve">
<style type="text/css">
	.st0{fill:#459BFE;}
	.st1{fill:#FFFFFF;}
</style>
<circle class="st0" cx="20" cy="20" r="20"/>
<g>
	<path class="st1" d="M26.9,27.125H13.1c-0.276,0-0.5-0.224-0.5-0.5v-4.3c0-0.276,0.224-0.5,0.5-0.5s0.5,0.224,0.5,0.5v3.8h12.8
		v-3.8c0-0.276,0.224-0.5,0.5-0.5s0.5,0.224,0.5,0.5v4.3C27.4,26.901,27.177,27.125,26.9,27.125z"/>
	<path class="st1" d="M24.653,14.372l-4.299-4.3C20.263,9.981,20.138,9.925,20,9.925s-0.264,0.056-0.354,0.147l-4.299,4.3
		c-0.195,0.195-0.195,0.512,0,0.707s0.512,0.195,0.707,0l3.446-3.447v12.093c0,0.276,0.224,0.5,0.5,0.5s0.5-0.224,0.5-0.5V11.632
		l3.446,3.447c0.098,0.098,0.226,0.146,0.354,0.146s0.256-0.049,0.354-0.146C24.848,14.883,24.848,14.567,24.653,14.372z"/>
</g>
</svg>
