<?xml version="1.0" encoding="utf-8"?>
<!-- Generator: Adobe Illustrator 21.1.0, SVG Export Plug-In . SVG Version: 6.00 Build 0)  -->
<svg version="1.1" id="Layer_1" xmlns="http://www.w3.org/2000/svg" xmlns:xlink="http://www.w3.org/1999/xlink" x="0px" y="0px"
	 viewBox="0 0 40 40" style="enable-background:new 0 0 40 40;" xml:space="preserve">
<style type="text/css">
	.st0{fill:#FFFFFF;}
	.st1{fill:#459BFE;}
</style>
<g>
	<path class="st0" d="M20,39.5C9.248,39.5,0.5,30.752,0.5,20C0.5,9.248,9.248,0.5,20,0.5c10.752,0,19.5,8.748,19.5,19.5
		C39.5,30.752,30.752,39.5,20,39.5z"/>
	<path class="st1" d="M20,1c10.477,0,19,8.523,19,19s-8.523,19-19,19S1,30.477,1,20S9.523,1,20,1 M20,0C8.954,0,0,8.954,0,20
		s8.954,20,20,20s20-8.954,20-20S31.046,0,20,0L20,0z"/>
</g>
<g>
	<path class="st1" d="M26.9,27.125H13.1c-0.276,0-0.5-0.224-0.5-0.5v-4.3c0-0.276,0.224-0.5,0.5-0.5s0.5,0.224,0.5,0.5v3.8h12.8
		v-3.8c0-0.276,0.224-0.5,0.5-0.5s0.5,0.224,0.5,0.5v4.3C27.4,26.901,27.177,27.125,26.9,27.125z"/>
	<path class="st1" d="M15.347,19.778l4.299,4.3c0.091,0.091,0.216,0.147,0.354,0.147s0.264-0.056,0.354-0.147l4.299-4.3
		c0.195-0.195,0.195-0.512,0-0.707s-0.512-0.195-0.707,0L20.5,22.518V10.425c0-0.276-0.224-0.5-0.5-0.5s-0.5,0.224-0.5,0.5v12.093
		l-3.446-3.447c-0.098-0.098-0.226-0.146-0.354-0.146s-0.256,0.049-0.354,0.146C15.152,19.267,15.152,19.583,15.347,19.778z"/>
</g>
</svg>
