<?xml version="1.0" encoding="utf-8"?>
<!-- Generator: Adobe Illustrator 21.1.0, SVG Export Plug-In . SVG Version: 6.00 Build 0)  -->
<svg version="1.1" id="Layer_1" xmlns="http://www.w3.org/2000/svg" xmlns:xlink="http://www.w3.org/1999/xlink" x="0px" y="0px"
	 viewBox="0 0 40 40" style="enable-background:new 0 0 40 40;" xml:space="preserve">
<style type="text/css">
	.st0{fill:#459BFE;}
	.st1{fill:#F7F8F8;}
</style>
<circle class="st0" cx="20" cy="20" r="20"/>
<g>
	<path class="st1" d="M27.792,13.25H12.208c-1.232,0-2.208,0.97-2.208,2.194v9.112c0,1.223,1.019,2.194,2.208,2.194H27.75
		c1.232,0,2.208-0.971,2.25-2.152v-9.154C30,14.22,28.981,13.25,27.792,13.25z M29.151,24.598c0,0.76-0.637,1.35-1.359,1.35H12.208
		c-0.764,0-1.358-0.633-1.358-1.35v-9.154c0-0.76,0.636-1.35,1.358-1.35h15.584c0.765,0,1.359,0.633,1.359,1.35V24.598z"/>
	<path class="st1" d="M22.314,20.548v3.671h5.096v-3.671H22.314z M26.561,23.375h-3.397v-1.983h3.397V23.375z"/>
	<rect x="13.185" y="15.781" class="st1" width="13.589" height="0.844"/>
</g>
</svg>
