<?xml version="1.0" encoding="utf-8"?>
<!-- Generator: Adobe Illustrator 21.1.0, SVG Export Plug-In . SVG Version: 6.00 Build 0)  -->
<svg version="1.1" id="Layer_1" xmlns="http://www.w3.org/2000/svg" xmlns:xlink="http://www.w3.org/1999/xlink" x="0px" y="0px"
	 viewBox="0 0 40 40" style="enable-background:new 0 0 40 40;" xml:space="preserve">
<style type="text/css">
	.st0{fill:#459BFE;}
	.st1{fill:#F7F8F8;}
</style>
<circle class="st0" cx="20" cy="20" r="20"/>
<path class="st1" d="M33.741,16.603l-2.593-4.22c-0.341-0.554-0.871-0.939-1.493-1.084s-1.262-0.031-1.801,0.318
	c-0.668,0.434-1.053,1.153-1.104,1.906c-0.043,0.009-0.086,0.022-0.128,0.044l-1.123,0.599c-0.034,0.018-0.069,0.03-0.107,0.036
	l-1.815,0.296c-0.392-0.375-0.881-0.632-1.415-0.734l-1.95-0.372c-1.201-0.23-2.415-0.215-3.611,0.043l-2.073,0.447
	c-0.068,0.015-0.139,0.009-0.204-0.018l-1.014-0.42c-0.011-0.005-0.022-0.007-0.033-0.01c-0.015-0.801-0.405-1.58-1.107-2.042
	c-0.545-0.358-1.192-0.477-1.824-0.332c-0.631,0.144-1.169,0.533-1.515,1.095l-2.57,4.182c-0.705,1.147-0.374,2.674,0.737,3.406
	c0.393,0.259,0.84,0.392,1.296,0.392c0.175,0,0.353-0.02,0.529-0.06c0.01-0.002,0.02-0.006,0.03-0.008
	c0.022,0.036,0.04,0.073,0.072,0.104l2.278,2.211c-0.019,0.06-0.042,0.118-0.055,0.18c-0.094,0.462-0.007,0.934,0.247,1.328
	c0.329,0.511,0.872,0.791,1.428,0.791c0.039,0,0.078-0.005,0.118-0.008c0.014,0.256,0.087,0.504,0.228,0.725
	c0.35,0.546,0.942,0.849,1.545,0.849c0.007,0,0.014-0.002,0.021-0.002c-0.003,0.309,0.086,0.614,0.264,0.867
	c0.335,0.527,0.892,0.82,1.468,0.82c0.055,0,0.111-0.004,0.166-0.01c0.58,0.589,1.35,0.916,2.159,0.916
	c0.157,0,0.315-0.012,0.474-0.037l2.343-0.368C21.884,28.796,22.306,29,22.739,29c0.181,0,0.364-0.035,0.538-0.109
	c0.309-0.131,0.556-0.366,0.71-0.661c0.214,0.107,0.449,0.165,0.688,0.165c0.252,0,0.507-0.063,0.743-0.193
	c0.004-0.003,0.009-0.005,0.013-0.008c0.326-0.184,0.569-0.484,0.701-0.837c0.082,0.03,0.165,0.058,0.253,0.074
	c0.094,0.017,0.189,0.026,0.283,0.026c0.32,0,0.632-0.102,0.901-0.296c0.432-0.312,0.662-0.814,0.662-1.323
	c0.311-0.005,0.613-0.104,0.873-0.294l0.026-0.019c0.691-0.505,0.857-1.497,0.371-2.211l-0.511-0.752l1.778-2.409
	c0.302,0.135,0.627,0.208,0.958,0.208c0.436,0,0.877-0.122,1.271-0.378c0.539-0.35,0.914-0.895,1.054-1.534
	C34.191,17.814,34.081,17.157,33.741,16.603z M8.614,19.109c-0.378,0.086-0.767,0.016-1.093-0.199
	c-0.666-0.439-0.865-1.355-0.442-2.042l2.57-4.182c0.207-0.337,0.529-0.57,0.908-0.657c0.379-0.086,0.767-0.016,1.093,0.199
	c0.666,0.438,0.865,1.354,0.442,2.042l-2.57,4.182C9.314,18.79,8.992,19.023,8.614,19.109z M11.758,21.559l-1.992-1.935
	c0.223-0.176,0.418-0.39,0.573-0.642l2.57-4.182c0.074-0.121,0.134-0.247,0.186-0.375l0.869,0.36c0.243,0.1,0.507,0.125,0.764,0.069
	l2.073-0.447c1.072-0.231,2.161-0.244,3.236-0.039l1.95,0.372c0.455,0.087,0.861,0.342,1.143,0.719l1.662,2.22
	c0.058,0.077,0.082,0.173,0.07,0.269c-0.013,0.096-0.061,0.182-0.137,0.241c-0.108,0.084-0.256,0.096-0.376,0.032l-3.531-1.896
	c-0.42-0.226-0.929-0.2-1.327,0.064l-7.597,5.058C11.843,21.481,11.803,21.522,11.758,21.559z M22.908,27.976
	c-0.198,0.084-0.431,0.014-0.553-0.166l-0.707-1.043c-0.137-0.2-0.098-0.48,0.086-0.635c0.083-0.07,0.185-0.107,0.29-0.107
	c0.022,0,0.043,0.002,0.064,0.005c0.112,0.016,0.209,0.073,0.282,0.158l0.791,1.182c0.037,0.096,0.042,0.202,0.013,0.304
	C23.134,27.81,23.038,27.921,22.908,27.976z M25.261,26.93c-0.041,0.173-0.148,0.315-0.3,0.399
	c-0.003,0.002-0.006,0.004-0.009,0.005c-0.27,0.144-0.601,0.06-0.775-0.198l-0.216-0.323c-0.021-0.037-0.035-0.076-0.059-0.111
	l-0.707-1.043c-0.01-0.015-0.023-0.026-0.033-0.04l-0.437-0.653c-0.177-0.264-0.126-0.629,0.118-0.832
	c0.109-0.09,0.24-0.138,0.377-0.138c0.029,0,0.059,0.003,0.088,0.007c0.159,0.024,0.296,0.11,0.392,0.241l1.533,2.308
	C25.281,26.671,25.291,26.802,25.261,26.93z M27.01,26.354c-0.133,0.096-0.294,0.133-0.454,0.103s-0.298-0.122-0.39-0.26
	l-0.134-0.202c-0.023-0.041-0.039-0.084-0.065-0.124l-1.452-2.168c-0.006-0.008-0.013-0.014-0.019-0.022L24.23,23.28
	c-0.092-0.138-0.125-0.305-0.093-0.47c0.032-0.165,0.125-0.305,0.262-0.397c0.1-0.067,0.214-0.099,0.326-0.099
	c0.193,0,0.384,0.094,0.5,0.268l0.772,1.16c0.007,0.012,0.012,0.025,0.019,0.037c0.286,0.432,0.623,0.942,0.908,1.37
	c0.012,0.019,0.029,0.033,0.041,0.051l0.197,0.297C27.348,25.776,27.28,26.159,27.01,26.354z M28.568,24.72l-0.026,0.019
	c-0.13,0.095-0.286,0.132-0.443,0.102c-0.134-0.024-0.25-0.096-0.337-0.199l-0.966-1.455c-0.074-0.129-0.1-0.278-0.069-0.426
	c0.034-0.162,0.128-0.299,0.276-0.393c0.263-0.167,0.609-0.094,0.787,0.167l0.919,1.351C28.892,24.155,28.83,24.53,28.568,24.72z
	 M28.39,21.737c-0.5-0.498-1.281-0.6-1.904-0.205c-0.195,0.124-0.354,0.287-0.476,0.476c-0.481-0.703-1.435-0.896-2.138-0.425
	c-0.356,0.238-0.598,0.605-0.682,1.034c-0.026,0.132-0.03,0.264-0.024,0.394c-0.338,0.013-0.666,0.133-0.93,0.354
	c-0.501,0.416-0.684,1.099-0.511,1.707c-0.22,0.049-0.429,0.144-0.605,0.293c-0.571,0.482-0.687,1.347-0.264,1.969l0.133,0.195
	l-1.869,0.294c-0.51,0.08-1.015-0.034-1.438-0.304l2.069-1.079c0.238-0.124,0.333-0.422,0.212-0.667
	c-0.121-0.244-0.412-0.342-0.649-0.218l-2.487,1.297c-0.363,0.19-0.804,0.067-1.023-0.287c-0.006-0.01-0.013-0.019-0.02-0.029
	c-0.075-0.104-0.103-0.231-0.079-0.357c0.024-0.127,0.096-0.234,0.203-0.301l0.569-0.357l2.321-1.3
	c0.234-0.131,0.32-0.432,0.192-0.673c-0.127-0.241-0.42-0.329-0.655-0.198l-3.212,1.798c-0.397,0.223-0.902,0.092-1.149-0.295
	c-0.072-0.112-0.095-0.245-0.066-0.375s0.106-0.24,0.218-0.308l3.683-2.265c0.229-0.141,0.303-0.445,0.166-0.68
	c-0.137-0.235-0.434-0.311-0.662-0.171l-3.375,2.075l-0.307,0.189c0,0-0.001,0-0.001,0.001l-0.424,0.261
	c-0.343,0.21-0.785,0.108-1.005-0.236c-0.111-0.172-0.149-0.377-0.107-0.579c0.041-0.201,0.156-0.374,0.325-0.486l7.596-5.058
	c0.107-0.071,0.243-0.077,0.355-0.017l3.531,1.898c0.449,0.242,1.001,0.194,1.406-0.121c0.282-0.219,0.464-0.539,0.511-0.899
	c0.047-0.36-0.046-0.717-0.261-1.006l-1.264-1.689l1.25-0.204c0.14-0.023,0.275-0.068,0.401-0.136l0.945-0.504
	c0.057,0.157,0.13,0.311,0.221,0.459l2.593,4.22c0.081,0.133,0.177,0.251,0.277,0.361L28.39,21.737z M33.109,18.235
	c-0.084,0.381-0.307,0.706-0.628,0.914c-0.663,0.431-1.544,0.226-1.963-0.455l-2.593-4.22c-0.419-0.682-0.22-1.586,0.444-2.016
	c0.321-0.208,0.703-0.276,1.073-0.19c0.371,0.086,0.687,0.315,0.89,0.646l2.594,4.22C33.127,17.463,33.193,17.854,33.109,18.235z"/>
</svg>
