<svg enable-background="new 0 0 30 50" viewBox="0 0 30 50" preserveAspectRatio="none" xmlns="http://www.w3.org/2000/svg"><path d="m15 44.7c1.4 0 2.5 1.1 2.5 2.5s-1.1 2.5-2.5 2.5-2.5-1.1-2.5-2.5 1.1-2.5 2.5-2.5z" fill="#ee5242"/><path d="m14.7 40.4c-.2-.4-.3-.4-.5-.8-3.3-6.3-14.2-17.2-14.2-24.4 0-8.3 6.7-15 15-15l0 0c8.3 0 15 6.7 15 15 0 7.2-10.9 18.1-14.1 24.4-.2.4-.3.4-.5.8-.2.3-.6.3-.7 0z" fill="#ee5242"/><path d="m14.7 11.8c.8 0 1.5-.7 1.5-1.5s-.7-1.5-1.5-1.5-1.5.7-1.5 1.5.7 1.5 1.5 1.5zm2.4 2c-.1-.8-.8-1.5-1.5-1.5-.1 0-.2.1-.3.2l-.5 1.2-.5-1.2c0-.1-.2-.2-.3-.2-.8 0-1.4.6-1.5 1.5l-.5 3.6c0 .3.1.6.2.8.2.2.4.3.6.3l.3 4.5c0 .2.1.3.3.3h2.6c.2 0 .3-.1.3-.3l.3-4.5c.2 0 .5-.1.6-.3.2-.2.3-.5.2-.8z" fill="#fff"/></svg>