<svg enable-background="new 0 0 48 48" viewBox="0 0 48 48" preserveAspectRatio="none" xmlns="http://www.w3.org/2000/svg"><path d="m24.2 39.3h-.5c-4.1 0-7.5-3.4-7.5-7.5v-15.6c0-4.1 3.4-7.5 7.5-7.5h.5c4.1 0 7.5 3.4 7.5 7.5v15.5c.1 4.2-3.3 7.6-7.5 7.6zm-.4-29.1c-3.3 0-6 2.7-6 6v15.5c0 3.3 2.7 6 6 6h .5c3.3 0 6-2.7 6-6v-15.5c0-3.3-2.7-6-6-6z" fill="#fff"/><path d="m24 35.8c-2.1 0-3.8-1.7-3.8-3.8s1.7-3.8 3.8-3.8 3.8 1.7 3.8 3.8-1.7 3.8-3.8 3.8zm0-6c-1.2 0-2.2 1-2.2 2.2s1 2.2 2.2 2.2 2.2-1 2.2-2.2-1-2.2-2.2-2.2zm0-2c-2.1 0-3.8-1.7-3.8-3.8s1.7-3.8 3.8-3.8 3.8 1.7 3.8 3.8-1.7 3.8-3.8 3.8zm0-6.1c-1.2 0-2.2 1-2.2 2.2s1 2.3 2.2 2.3 2.2-1 2.2-2.3-1-2.2-2.2-2.2zm0-2c-2.1 0-3.8-1.7-3.8-3.7s1.7-3.8 3.8-3.8 3.8 1.7 3.8 3.8-1.7 3.7-3.8 3.7zm0-6c-1.2 0-2.2 1-2.2 2.2s1 2.2 2.2 2.2 2.2-1 2.2-2.2-1-2.2-2.2-2.2z" fill="#fff"/></svg>