<?xml version="1.0" encoding="utf-8"?>
<!-- Generator: Adobe Illustrator 21.1.0, SVG Export Plug-In . SVG Version: 6.00 Build 0)  -->
<svg version="1.1" id="Layer_1" xmlns="http://www.w3.org/2000/svg" xmlns:xlink="http://www.w3.org/1999/xlink" x="0px" y="0px"
	 viewBox="0 0 70 5"
     preserveAspectRatio="none"
     style="enable-background:new 0 0 70 5;" xml:space="preserve">
<style type="text/css">
	.st0{fill:none;stroke:#3F3F3E;stroke-miterlimit:10;}
</style>
<path class="st0" d="M6.5,1l-3,3l-3-3"/>
<path class="st0" d="M13.5,1.099l-3,2.803l-3-2.803"/>
<path class="st0" d="M20.5,1.525l-3,1.949l-3-1.949"/>
<path class="st0" d="M27.5,2.372l-3,0.256l-3-0.256"/>
<path class="st0" d="M34.5,3.086l-3-1.171l-3,1.171"/>
<path class="st0" d="M41.5,3.511l-3-2.023l-3,2.023"/>
<path class="st0" d="M48.5,3.763l-3-2.525l-3,2.525"/>
<path class="st0" d="M55.5,3.906l-3-2.813l-3,2.813"/>
<path class="st0" d="M62.5,3.979l-3-2.958l-3,2.958"/>
<path class="st0" d="M69.5,4l-3-3l-3,3"/>
</svg>
