<svg enable-background="new 0 0 34 340" viewBox="0 0 34 340" preserveAspectRatio="none" xmlns="http://www.w3.org/2000/svg"><g fill="#459bfe"><path d="m12.2 254.2h7.5v1h-7.5zm0 3.6h7.5v1h-7.5zm0-7h7.5v1h-7.5z"/><path d="m24.2 249.2v-.9l-3.4-4.1h-13v19.5h2.5v2h16v-16.5zm-15.4 13.6v-17.5h11v4h3.5v13.5zm14.1-14.6h-2.1v-2.5zm2.3 16.6h-14v-1h13v-13.5h1z"/><path d="m24.5 58.5h1.5v1.5h-1.5z"/><path d="m23.5 57h1v1h-2v2h-4.5v-1.5h2v-2h-1v-1.5h1.5v2h2v-2.5h1.5v-1.5h-1.5v-1h3.5v3h-2.5z"/><path d="m18 42h8v8h-8zm1 7h6v-6h-6z"/><path d="m20.5 44.5h3v3h-3z"/><path d="m8 52h8v8h-8zm1 7h6v-6h-6z"/><path d="m10.5 54.5h3v3h-3z"/><path d="m8 42h8v8h-8zm1 7h6v-6h-6z"/><path d="m10.5 44.5h3v3h-3z"/><path d="m18 52h3v1.5h-3z"/><path d="m17 95.5c-5.8 0-10.5-4.7-10.5-10.5s4.7-10.5 10.5-10.5 10.5 4.7 10.5 10.5-4.7 10.5-10.5 10.5zm0-20c-5.2 0-9.5 4.3-9.5 9.5s4.3 9.5 9.5 9.5 9.5-4.3 9.5-9.5-4.3-9.5-9.5-9.5z"/><path d="m21.8 91.4-4.8-2.2-4.8 2.2.7-5.1-3.6-3.8 5.2-1 2.5-4.5 2.5 4.5 5.2 1-3.6 3.8zm-10.5-8.3 2.7 2.8-.5 3.8 3.6-1.6 3.6 1.6-.5-3.8 2.7-2.8-3.8-.7-2.1-3.3-1.9 3.4z"/></g><path d="m17 1c8.8 0 16 7.2 16 16s-7.2 16-16 16-16-7.2-16-16 7.2-16 16-16z" fill="#eef1f3"/><path d="m23.9 23.9h-13.8c-.5 0-.8-.1-1-.5v-1.3c0-.5 1.4-.9 2.4-1.2s1.9-.7 2.4-.8.7-.3.8-.7c.1-.1.1-.2.2-.3 0-.3-.2-.5-.3-.8-.2-.2-.5-.9-.8-2.3-.3-.2-.6-.2-.7-1s .2-1 .5-1c-.1-2.2.9-4.3 3.2-4.3h.5c2.3 0 3.2 2.1 3.2 4.3.3 0 .6.3.5 1-.1.8-.4.9-.7 1.1-.3 1.3-.6 2-.8 2.3-.2.2-.3.5-.3.8.1.1.2.1.2.3.2.4.4.6.8.7.5.1 1.4.5 2.4.8s2.4.7 2.4 1.2v1.3c-.2.3-.5.4-1.1.4z" fill="#459bfe"/><path d="m16.2 218.3v-1.5h1.7v1.5zm0 6.9v-5.9h1.7v5.9z" fill="#459bfe"/><path d="m17 231.5c-5.8 0-10.5-4.7-10.5-10.5s4.7-10.5 10.5-10.5 10.5 4.7 10.5 10.5-4.7 10.5-10.5 10.5zm0-20c-5.2 0-9.5 4.3-9.5 9.5s4.3 9.5 9.5 9.5 9.5-4.3 9.5-9.5-4.3-9.5-9.5-9.5z" fill="#459bfe"/><path d="m23.9 127.6h-13.8c-.3 0-.5-.2-.5-.5v-4.3c0-.3.2-.5.5-.5s.5.2.5.5v3.8h12.8v-3.8c0-.3.2-.5.5-.5s.5.2.5.5v4.3c0 .3-.2.5-.5.5z" fill="#459bfe"/><path d="m21.7 114.8-4.3-4.3c-.1-.1-.2-.1-.4-.1s-.3.1-.4.1l-4.3 4.3c-.2.2-.2.5 0 .7s.5.2.7 0l3.4-3.4v12.1c0 .3.2.5.5.5s.5-.2.5-.5v-12.1l3.4 3.4c.1.1.2.1.4.1s.3 0 .4-.1c.2-.1.2-.5.1-.7z" fill="#459bfe"/><path d="m20.5 292c-.3 0-.5.2-.5.5v2.9h-7.9v-12.8h7.9v2.9c0 .3.2.5.5.5s.5-.2.5-.5v-3.4c0-.3-.2-.5-.5-.5h-8.9c-.3 0-.5.2-.5.5v13.8c0 .3.2.5.5.5h8.9c.3 0 .5-.2.5-.5v-3.4c0-.3-.2-.5-.5-.5z" fill="#459bfe"/><path d="m28.3 289.2c0-.1 0-.1 0-.2s0-.1 0-.2-.1-.1-.1-.2l-4.3-4.3c-.2-.2-.5-.2-.7 0s-.2.5 0 .7l3.4 3.4h-12c-.3 0-.5.2-.5.5s.2.5.5.5h12.1l-3.4 3.4c-.2.2-.2.5 0 .7.1.1.2.1.4.1s.3 0 .4-.1l4.3-4.3c-.1.1-.1.1-.1 0z" fill="#459bfe"/><path d="m28.2 191.8h-1.2v-1.2c0-.3-.2-.5-.5-.5s-.5.2-.5.5v1.2h-1.2c-.3 0-.5.2-.5.5s.2.5.5.5h1.2v1.2c0 .3.2.5.5.5s.5-.2.5-.5v-1.2h1.2c.3 0 .5-.2.5-.5s-.2-.5-.5-.5z" fill="#459bfe"/><path d="m26.5 195.7c-1.9 0-3.4-1.5-3.4-3.4s1.5-3.4 3.4-3.4 3.4 1.5 3.4 3.4-1.5 3.4-3.4 3.4zm0-7.8c-1.8 0-3.4 1.1-4.1 2.8-.3-.1-.7-.2-.9-.3-.5-.2-.9-.3-1.1-.4s-.3-.1-.4-.4c0-.2-.1-.3-.2-.4 0-.1.1-.2.2-.3.3-.4.6-1.2.8-2.3.3-.2.7-.5.8-1.3.1-.7-.1-1-.3-1.2-.1-.1-.1-.1-.2-.2-.1-2.7-1.5-4.4-3.7-4.4h-.5c-1 0-1.9.4-2.5 1-.8.8-1.2 2-1.2 3.4-.1 0-.2.1-.2.2-.2.3-.3.7-.3 1.2.1.8.4 1.1.8 1.3.3 1.1.5 1.9.8 2.2 0 .1.1.2.1.3s.1.1.1.2v.1l-.1.1v.1c0 .2-.1.3-.4.3-.3.1-.7.2-1.2.4-.4.1-.8.3-1.3.4h-.1c-1.4.4-2.6.8-2.6 1.6v1.4l.1.1c.3.7.9.8 1.4.8h12.7c.8 1.2 2.1 2.1 3.7 2.1 2.4 0 4.4-2 4.4-4.4s-2.2-4.4-4.6-4.4zm-16.4 5.7c-.3 0-.4-.1-.5-.1v-1.1c.2-.3 1.4-.6 1.9-.8h.1c.5-.1.9-.3 1.3-.5s.8-.3 1-.3c.6-.1 1-.4 1.2-1 0-.1.1-.1.1-.2l.1-.1v-.2c0-.3-.1-.5-.2-.7 0-.1-.1-.1-.1-.2l-.1-.2s-.3-.3-.7-2.1v-.2l-.2-.1c-.1 0-.1-.1-.2-.1-.2-.1-.2-.1-.3-.5 0-.3 0-.4 0-.4h.5v-.5c-.1-1.3.3-2.4.9-3.1.5-.5 1.1-.7 1.8-.7h.5c2.5 0 2.7 2.9 2.7 3.8v.5h.5s.1.1 0 .4c-.1.5-.2.5-.4.7l-.3.2v.2c-.3 1.5-.6 2-.7 2.1-.3.3-.4.7-.4 1.2v.2l.1.1h.1l.2.1c.2.4.5.8 1.1 1 .2 0 .6.2 1 .3.3.1.7.2 1 .4 0 .2-.1.4-.1.7 0 .5.1.9.2 1.3z" fill="#459bfe"/><path d="m30.8 149.4-2.6-4.2c-.3-.6-.9-.9-1.5-1.1s-1.3 0-1.8.3c-.7.4-1.1 1.2-1.1 1.9h-.1l-1.1.6h-.1l-1.8.3c-.4-.4-.9-.6-1.4-.7l-2-.4c-1.2-.2-2.4-.2-3.6 0l-2.1.4c-.1 0-.1 0-.2 0l-1-.4v0c0-.8-.4-1.6-1.1-2-.5-.4-1.2-.5-1.8-.3-.6.1-1.2.5-1.5 1.1l-2.6 4.2c-.7 1.1-.4 2.7.7 3.4.4.3.8.4 1.3.4.2 0 .4 0 .5-.1v0s0 .1.1.1l2.3 2.2c0 .1 0 .1-.1.2-.1.5 0 .9.2 1.3.3.5.9.8 1.4.8h.1c0 .3.1.5.2.7.4.5.9.8 1.5.8v0c0 .3.1.6.3.9.3.5.9.8 1.5.8h.2c.6.6 1.4.9 2.2.9h.5l2.3-.4c.3.4.7.6 1.1.6.2 0 .4 0 .5-.1.3-.1.6-.4.7-.7.2.1.4.2.7.2s.5-.1.7-.2v0c .3-.2.6-.5.7-.8.1 0 .2.1.3.1h.3c.3 0 .6-.1.9-.3.4-.3.7-.8.7-1.3.3 0 .6-.1.9-.3l0 0c .7-.5.9-1.5.4-2.2l-.5-.8 1.8-2.4c.3.1.6.2 1 .2s.9-.1 1.3-.4c.5-.4.9-.9 1.1-1.5 0-.6-.1-1.2-.4-1.8zm-25.2 2.5c-.4.1-.8 0-1.1-.2-.7-.4-.9-1.4-.4-2l2.6-4.2c.2-.3.5-.6.9-.7s.8 0 1.1.2c.7.4.9 1.4.4 2l-2.6 4.2c-.2.4-.5.6-.9.7zm3.2 2.5-2-1.9c.2-.2.4-.4.6-.6l2.6-4.2c.1-.1.1-.2.2-.4l.9.4c.2.1.5.1.8.1l2.1-.4c1.1-.2 2.2-.2 3.2 0l2 .4c.5.1.9.3 1.1.7l1.7 2.2c.1.1.1.2.1.3s-.1.2-.1.2c-.1.1-.3.1-.4 0l-3.5-1.9c-.4-.2-.9-.2-1.3.1l-7.6 5.1c-.3-.2-.4-.2-.4-.1zm11.1 6.4c-.2.1-.4 0-.6-.2l-.7-1c-.1-.2-.1-.5.1-.6.1-.1.2-.1.3-.1h.1c.1 0 .2.1.3.2l.8 1.2v.3s-.1.1-.3.2zm2.4-1.1c0 .2-.1.3-.3.4v0c-.3.1-.6.1-.8-.2l-.2-.3s0-.1-.1-.1l-.7-1v0l-.4-.7c-.2-.3-.1-.6.1-.8.1-.1.2-.1.4-.1h.1c.2 0 .3.1.4.2l1.5 2.3zm1.7-.5c-.1.1-.3.1-.5.1s-.3-.1-.4-.3l-.1-.2s0-.1-.1-.1l-1.5-2.2v0l-.3-.4c-.1-.1-.1-.3-.1-.5s.1-.3.3-.4c.1-.1.2-.1.3-.1.2 0 .4.1.5.3l.8 1.2v0c .3.4.6.9.9 1.4v.1l.2.3c.4.2.3.6 0 .8zm1.6-1.7 0 0c-.2.1-.3.2-.5.1-.1 0-.2-.1-.3-.2l-1-1.5c-.1-.1-.1-.3-.1-.4 0-.2.1-.3.3-.4.3-.2.6-.1.8.2l.9 1.4c.2.3.2.6-.1.8zm-.2-3c-.5-.5-1.3-.6-1.9-.2-.2.1-.4.3-.5.5-.5-.7-1.4-.9-2.1-.4-.4.2-.6.6-.7 1v .4c-.3 0-.7.1-.9.4-.5.4-.7 1.1-.5 1.7-.2 0-.4.1-.6.3-.6.5-.7 1.3-.3 2l .1.2-1.9.3c-.5.1-1 0-1.4-.3l2.1-1.1c.2-.1.3-.4.2-.7-.1-.2-.4-.3-.6-.2l-2.5 1.3c-.4.2-.8.1-1-.3v0c-.1-.1-.1-.2-.1-.4 0-.1.1-.2.2-.3l.6-.4 2.3-1.3c.2-.1.3-.4.2-.7-.1-.2-.4-.3-.7-.2l-3.2 1.8c-.4.2-.9.1-1.1-.3-.1-.1-.1-.2-.1-.4s.1-.2.2-.3l3.7-2.3c.2-.1.3-.4.2-.7-.1-.2-.4-.3-.7-.2l-3.4 2.1-.3.2v0l-.4.3c-.3.2-.8.1-1-.2-.1-.2-.1-.4-.1-.6s.2-.4.3-.5l7.5-5c .1-.1.2-.1.4 0l3.5 1.9c.4.2 1 .2 1.4-.1.3-.2.5-.5.5-.9s0-.7-.3-1l-1.3-1.7 1.2-.2c.1 0 .3-.1.4-.1l.9-.5c.1.2.1.3.2.5l2.6 4.2c.1.1.2.3.3.4zm4.7-3.5c-.1.4-.3.7-.6.9-.7.4-1.5.2-2-.5l-2.6-4.2c-.4-.7-.2-1.6.4-2 .3-.2.7-.3 1.1-.2s.7.3.9.6l2.6 4.2c.3.5.3.9.2 1.2z" fill="#459bfe"/><path d="m26.2 316.9-3-3c-.2-.2-.5-.2-.7 0l-11.6 11.6c-.1.1-.1.2-.1.4v3c0 .1.1.3.1.4.1.1.2.1.4.1v0h3c .1 0 .3-.1.4-.1l11.6-11.6c.1-.3.1-.6-.1-.8zm-6 .5 2.3 2.3-7.2 7.2-2.3-2.3zm-6.2 11h-2.3v-2.3l.7-.7 2.3 2.3zm9.3-9.4-2.3-2.3 1.8-1.8 2.3 2.3z" fill="#459bfe"/><path d="m25.2 319c-.3 0-.5.2-.5.5v11.3h-15.4v-15.5h11.2c.3 0 .5-.2.5-.5s-.2-.5-.5-.5h-11.7c-.1 0-.3.1-.4.1s-.1.2-.1.4v16.5c0 .3.2.5.5.5h16.4c.3 0 .5-.2.5-.5v-11.8c0-.3-.2-.5-.5-.5z" fill="#459bfe"/></svg>