<?xml version="1.0" encoding="utf-8"?>
<!-- Generator: Adobe Illustrator 21.1.0, SVG Export Plug-In . SVG Version: 6.00 Build 0)  -->
<svg version="1.1" id="Layer_1" xmlns="http://www.w3.org/2000/svg" xmlns:xlink="http://www.w3.org/1999/xlink" x="0px" y="0px"
	 viewBox="0 0 34 340" preserveAspectRatio="none" style="enable-background:new 0 0 34 340;" xml:space="preserve">
<style type="text/css">
	.st0{fill:#EEF1F3;}
	.st1{fill:#459BFE;}
	.st2{enable-background:new    ;}
</style>
<path class="st0" d="M17,1c8.8,0,16,7.2,16,16s-7.2,16-16,16S1,25.8,1,17S8.2,1,17,1z"/>
<path class="st1" d="M23.9,23.9H10.1c-0.5,0-0.8-0.1-1-0.5v-1.3c0-0.5,1.4-0.9,2.4-1.2c1-0.3,1.9-0.7,2.4-0.8
	c0.5-0.1,0.7-0.3,0.8-0.7c0.1-0.1,0.1-0.2,0.2-0.3c0-0.3-0.2-0.5-0.3-0.8c-0.2-0.2-0.5-0.9-0.8-2.3c-0.3-0.2-0.6-0.2-0.7-1
	c-0.1-0.8,0.2-1,0.5-1c-0.1-2.2,0.9-4.3,3.2-4.3h0.5c2.3,0,3.2,2.1,3.2,4.3c0.3,0,0.6,0.3,0.5,1c-0.1,0.8-0.4,0.9-0.7,1.1
	c-0.3,1.3-0.6,2-0.8,2.3c-0.2,0.2-0.3,0.5-0.3,0.8c0.1,0.1,0.2,0.1,0.2,0.3c0.2,0.4,0.4,0.6,0.8,0.7c0.5,0.1,1.4,0.5,2.4,0.8
	s2.4,0.7,2.4,1.2v1.3C24.8,23.8,24.5,23.9,23.9,23.9z"/>
<g>
	<g class="st2">
		<path class="st1" d="M16.3,218.3v-1.5h1.5v1.5H16.3z M16.3,225.2v-5.9h1.5v5.9H16.3z"/>
	</g>
	<path class="st1" d="M17,231.5c-5.8,0-10.5-4.7-10.5-10.5s4.7-10.5,10.5-10.5s10.5,4.7,10.5,10.5S22.8,231.5,17,231.5z M17,211.5
		c-5.2,0-9.5,4.3-9.5,9.5s4.3,9.5,9.5,9.5s9.5-4.3,9.5-9.5S22.2,211.5,17,211.5z"/>
</g>
<g>
	<path class="st1" d="M17.769,296.408H8.852c-0.276,0-0.5-0.224-0.5-0.5v-13.816c0-0.276,0.224-0.5,0.5-0.5h8.917
		c0.276,0,0.5,0.224,0.5,0.5v3.429c0,0.276-0.224,0.5-0.5,0.5s-0.5-0.224-0.5-0.5v-2.929H9.352v12.816h7.917V292.5
		c0-0.276,0.224-0.5,0.5-0.5s0.5,0.224,0.5,0.5v3.408C18.269,296.185,18.046,296.408,17.769,296.408z"/>
	<path class="st1" d="M25.61,289.191c0.051-0.122,0.051-0.26,0-0.382c-0.025-0.062-0.062-0.117-0.109-0.163l-4.299-4.299
		c-0.195-0.195-0.512-0.195-0.707,0s-0.195,0.512,0,0.707l3.446,3.446H11.848c-0.276,0-0.5,0.224-0.5,0.5s0.224,0.5,0.5,0.5h12.093
		l-3.446,3.446c-0.195,0.195-0.195,0.512,0,0.707c0.098,0.098,0.226,0.146,0.354,0.146s0.256-0.049,0.354-0.146l4.299-4.299
		C25.548,289.308,25.584,289.252,25.61,289.191z"/>
</g>
<g>
	<path class="st1" d="M28.181,191.8h-1.2v-1.2c0-0.3-0.2-0.5-0.5-0.5s-0.5,0.2-0.5,0.5v1.2h-1.2c-0.3,0-0.5,0.2-0.5,0.5
		s0.2,0.5,0.5,0.5h1.2v1.2c0,0.3,0.2,0.5,0.5,0.5s0.5-0.2,0.5-0.5v-1.2h1.2c0.3,0,0.5-0.2,0.5-0.5S28.481,191.8,28.181,191.8z"/>
	<path class="st1" d="M26.481,195.7c-1.9,0-3.4-1.5-3.4-3.4s1.5-3.4,3.4-3.4s3.4,1.5,3.4,3.4S28.381,195.7,26.481,195.7z
		 M26.481,187.9c-1.848,0-3.425,1.143-4.076,2.758c-0.333-0.109-0.654-0.222-0.942-0.327c-0.462-0.169-0.861-0.313-1.14-0.368
		c-0.198-0.051-0.299-0.113-0.433-0.358c-0.024-0.161-0.091-0.275-0.162-0.358c0.031-0.108,0.091-0.215,0.188-0.321
		c0.28-0.422,0.571-1.222,0.825-2.267c0.346-0.229,0.653-0.532,0.754-1.34c0.094-0.654-0.096-1.033-0.271-1.236
		c-0.068-0.079-0.146-0.145-0.23-0.197c-0.112-2.747-1.505-4.438-3.693-4.438h-0.5c-0.996,0-1.861,0.355-2.504,1.028
		c-0.758,0.794-1.188,2.019-1.202,3.402c-0.086,0.049-0.163,0.112-0.23,0.188c-0.245,0.277-0.33,0.685-0.26,1.243
		c0.101,0.809,0.411,1.066,0.754,1.26c0.253,1.125,0.523,1.875,0.804,2.235c0.041,0.101,0.088,0.193,0.135,0.283
		c0.032,0.062,0.058,0.11,0.075,0.151c-0.01,0.02-0.019,0.039-0.027,0.057l-0.097,0.098l-0.034,0.134
		c-0.044,0.179-0.065,0.261-0.413,0.33c-0.303,0.061-0.702,0.206-1.164,0.374c-0.386,0.141-0.823,0.3-1.281,0.438l-0.112,0.033
		c-1.36,0.406-2.644,0.791-2.644,1.645v1.419l0.053,0.105c0.342,0.685,0.924,0.776,1.447,0.776h12.67
		c0.78,1.23,2.145,2.053,3.71,2.053c2.43,0,4.4-1.97,4.4-4.4S28.911,187.9,26.481,187.9z M10.101,193.647
		c-0.331,0-0.438-0.05-0.5-0.132v-1.1c0.246-0.252,1.419-0.603,1.93-0.756l0.114-0.034c0.478-0.144,0.934-0.31,1.336-0.455
		c0.424-0.154,0.79-0.288,1.018-0.334c0.627-0.125,0.988-0.422,1.155-0.955c0.046-0.065,0.077-0.129,0.102-0.183l0.146-0.146v-0.206
		c0-0.31-0.121-0.54-0.218-0.725c-0.038-0.072-0.079-0.146-0.107-0.232l-0.12-0.195c-0.003-0.003-0.298-0.337-0.666-2.052
		l-0.042-0.198l-0.168-0.113c-0.067-0.045-0.134-0.082-0.199-0.117c-0.174-0.096-0.232-0.127-0.282-0.529
		c-0.037-0.296,0.001-0.418,0.006-0.438h0.521l-0.024-0.522c-0.058-1.271,0.277-2.387,0.919-3.059
		c0.456-0.477,1.055-0.719,1.781-0.719h0.5c2.505,0,2.7,2.908,2.7,3.8l-0.033,0.489h0.5c0.023,0.021,0.08,0.149,0.037,0.449
		c-0.06,0.479-0.158,0.541-0.374,0.677l-0.271,0.178l-0.045,0.194c-0.342,1.479-0.645,2.009-0.667,2.06
		c-0.283,0.283-0.446,0.704-0.446,1.153v0.209l0.148,0.146c0.017,0.017,0.034,0.032,0.052,0.048l0.053,0.12
		c0.201,0.403,0.478,0.798,1.149,0.967c0.229,0.046,0.594,0.179,1.018,0.333c0.313,0.114,0.664,0.237,1.028,0.355
		c-0.034,0.221-0.068,0.444-0.068,0.675c0,0.473,0.094,0.92,0.232,1.347H10.101z"/>
</g>
<g>
	<path class="st1" d="M23.9,127.6H10.1c-0.276,0-0.5-0.224-0.5-0.5v-4.3c0-0.276,0.224-0.5,0.5-0.5s0.5,0.224,0.5,0.5v3.8h12.8v-3.8
		c0-0.276,0.224-0.5,0.5-0.5s0.5,0.224,0.5,0.5v4.3C24.4,127.376,24.177,127.6,23.9,127.6z"/>
	<path class="st1" d="M21.653,114.847l-4.299-4.3c-0.091-0.091-0.216-0.147-0.354-0.147s-0.264,0.056-0.354,0.147l-4.299,4.3
		c-0.195,0.195-0.195,0.512,0,0.707s0.512,0.195,0.707,0l3.446-3.447V124.2c0,0.276,0.224,0.5,0.5,0.5s0.5-0.224,0.5-0.5v-12.093
		l3.446,3.447c0.098,0.098,0.226,0.146,0.354,0.146s0.256-0.049,0.354-0.146C21.848,115.358,21.848,115.042,21.653,114.847z"/>
</g>
<path class="st1" d="M30.74,149.601l-2.593-4.22c-0.341-0.554-0.871-0.939-1.493-1.084c-0.622-0.145-1.262-0.031-1.801,0.318
	c-0.668,0.434-1.053,1.153-1.104,1.906c-0.043,0.009-0.086,0.022-0.128,0.044l-1.123,0.599c-0.034,0.018-0.069,0.03-0.107,0.036
	l-1.815,0.296c-0.392-0.375-0.881-0.632-1.415-0.734l-1.95-0.372c-1.201-0.23-2.415-0.215-3.611,0.043l-2.073,0.447
	c-0.068,0.015-0.139,0.009-0.204-0.018l-1.014-0.42c-0.011-0.005-0.022-0.007-0.033-0.01c-0.015-0.801-0.405-1.58-1.107-2.042
	c-0.545-0.358-1.192-0.477-1.824-0.332c-0.631,0.144-1.169,0.533-1.515,1.095l-2.57,4.182c-0.705,1.147-0.374,2.674,0.737,3.406
	c0.393,0.259,0.84,0.392,1.296,0.392c0.175,0,0.353-0.02,0.529-0.06c0.01-0.002,0.02-0.006,0.03-0.008
	c0.022,0.036,0.04,0.073,0.072,0.104l2.278,2.211c-0.019,0.06-0.042,0.118-0.055,0.18c-0.094,0.462-0.007,0.934,0.247,1.328
	c0.329,0.511,0.872,0.791,1.428,0.791c0.039,0,0.078-0.005,0.118-0.008c0.014,0.256,0.087,0.504,0.228,0.725
	c0.35,0.546,0.942,0.849,1.545,0.849c0.007,0,0.014-0.002,0.021-0.002c-0.003,0.309,0.086,0.614,0.264,0.867
	c0.335,0.527,0.892,0.82,1.468,0.82c0.055,0,0.111-0.004,0.166-0.01c0.58,0.589,1.35,0.916,2.159,0.916
	c0.157,0,0.315-0.012,0.474-0.037l2.343-0.368c0.275,0.363,0.697,0.567,1.13,0.567c0.181,0,0.364-0.035,0.538-0.109
	c0.309-0.131,0.556-0.366,0.71-0.661c0.214,0.107,0.449,0.165,0.688,0.165c0.252,0,0.507-0.063,0.743-0.193
	c0.004-0.003,0.009-0.005,0.013-0.008c0.326-0.184,0.569-0.484,0.701-0.837c0.082,0.03,0.165,0.058,0.253,0.074
	c0.094,0.017,0.189,0.026,0.283,0.026c0.32,0,0.632-0.102,0.901-0.296c0.432-0.312,0.662-0.814,0.662-1.323
	c0.311-0.005,0.613-0.104,0.873-0.294l0.026-0.019c0.691-0.505,0.857-1.497,0.371-2.211l-0.511-0.752l1.778-2.409
	c0.302,0.135,0.627,0.208,0.958,0.208c0.436,0,0.877-0.122,1.271-0.378c0.539-0.35,0.914-0.895,1.054-1.534
	C31.19,150.812,31.08,150.155,30.74,149.601z M5.613,152.107c-0.378,0.086-0.767,0.016-1.093-0.199
	c-0.666-0.439-0.865-1.355-0.442-2.042l2.57-4.182c0.207-0.337,0.529-0.57,0.908-0.657c0.379-0.086,0.767-0.016,1.093,0.199
	c0.666,0.438,0.865,1.354,0.442,2.042l-2.57,4.182C6.313,151.788,5.991,152.021,5.613,152.107z M8.757,154.557l-1.992-1.935
	c0.223-0.176,0.418-0.39,0.573-0.642l2.57-4.182c0.074-0.121,0.134-0.247,0.186-0.375l0.869,0.36c0.243,0.1,0.507,0.125,0.764,0.069
	l2.073-0.447c1.072-0.231,2.161-0.244,3.236-0.039l1.95,0.372c0.455,0.087,0.861,0.342,1.143,0.719l1.662,2.22
	c0.058,0.077,0.082,0.173,0.07,0.269c-0.013,0.096-0.061,0.182-0.137,0.241c-0.108,0.084-0.256,0.096-0.376,0.032l-3.531-1.896
	c-0.42-0.226-0.929-0.2-1.327,0.064l-7.597,5.058C8.842,154.479,8.802,154.52,8.757,154.557z M19.907,160.974
	c-0.198,0.084-0.431,0.014-0.553-0.166l-0.707-1.043c-0.137-0.2-0.098-0.48,0.086-0.635c0.083-0.07,0.185-0.107,0.29-0.107
	c0.022,0,0.043,0.002,0.064,0.005c0.112,0.016,0.209,0.073,0.282,0.158l0.791,1.182c0.037,0.096,0.042,0.202,0.013,0.304
	C20.133,160.808,20.037,160.919,19.907,160.974z M22.26,159.928c-0.041,0.173-0.148,0.315-0.3,0.399
	c-0.003,0.002-0.006,0.004-0.009,0.005c-0.27,0.144-0.601,0.06-0.775-0.198l-0.216-0.323c-0.021-0.037-0.035-0.076-0.059-0.111
	l-0.707-1.043c-0.01-0.015-0.023-0.026-0.033-0.04l-0.437-0.653c-0.177-0.264-0.126-0.629,0.118-0.832
	c0.109-0.09,0.24-0.138,0.377-0.138c0.029,0,0.059,0.003,0.088,0.007c0.159,0.024,0.296,0.11,0.392,0.241l1.533,2.308
	C22.28,159.669,22.29,159.8,22.26,159.928z M24.009,159.352c-0.133,0.096-0.294,0.133-0.454,0.103c-0.16-0.03-0.298-0.122-0.39-0.26
	l-0.134-0.202c-0.023-0.041-0.039-0.084-0.065-0.124l-1.452-2.168c-0.006-0.008-0.013-0.014-0.019-0.022l-0.266-0.401
	c-0.092-0.138-0.125-0.305-0.093-0.47c0.032-0.165,0.125-0.305,0.262-0.397c0.1-0.067,0.214-0.099,0.326-0.099
	c0.193,0,0.384,0.094,0.5,0.268l0.772,1.16c0.007,0.012,0.012,0.025,0.019,0.037c0.286,0.432,0.623,0.942,0.908,1.37
	c0.012,0.019,0.029,0.033,0.041,0.051l0.197,0.297C24.347,158.774,24.279,159.157,24.009,159.352z M25.567,157.718l-0.026,0.019
	c-0.13,0.095-0.286,0.132-0.443,0.102c-0.134-0.024-0.25-0.096-0.337-0.199l-0.966-1.455c-0.074-0.129-0.1-0.278-0.069-0.426
	c0.034-0.162,0.128-0.299,0.276-0.393c0.263-0.167,0.609-0.094,0.787,0.167l0.919,1.351
	C25.891,157.153,25.829,157.528,25.567,157.718z M25.389,154.735c-0.5-0.498-1.281-0.6-1.904-0.205
	c-0.195,0.124-0.354,0.287-0.476,0.476c-0.481-0.703-1.435-0.896-2.138-0.425c-0.356,0.238-0.598,0.605-0.682,1.034
	c-0.026,0.132-0.03,0.264-0.024,0.394c-0.338,0.013-0.666,0.133-0.93,0.354c-0.501,0.416-0.684,1.099-0.511,1.707
	c-0.22,0.049-0.429,0.144-0.605,0.293c-0.571,0.482-0.687,1.347-0.264,1.969l0.133,0.195l-1.869,0.294
	c-0.51,0.08-1.015-0.034-1.438-0.304l2.069-1.079c0.238-0.124,0.333-0.422,0.212-0.667c-0.121-0.244-0.412-0.342-0.649-0.218
	l-2.487,1.297c-0.363,0.19-0.804,0.067-1.023-0.287c-0.006-0.01-0.013-0.019-0.02-0.029c-0.075-0.104-0.103-0.231-0.079-0.357
	c0.024-0.127,0.096-0.234,0.203-0.301l0.569-0.357l2.321-1.3c0.234-0.131,0.32-0.432,0.192-0.673
	c-0.127-0.241-0.42-0.329-0.655-0.198l-3.212,1.798c-0.397,0.223-0.902,0.092-1.149-0.295c-0.072-0.112-0.095-0.245-0.066-0.375
	c0.029-0.13,0.106-0.24,0.218-0.308l3.683-2.265c0.229-0.141,0.303-0.445,0.166-0.68c-0.137-0.235-0.434-0.311-0.662-0.171
	l-3.375,2.075l-0.307,0.189c0,0-0.001,0-0.001,0.001l-0.424,0.261c-0.343,0.21-0.785,0.108-1.005-0.236
	c-0.111-0.172-0.149-0.377-0.107-0.579c0.041-0.201,0.156-0.374,0.325-0.486l7.596-5.058c0.107-0.071,0.243-0.077,0.355-0.017
	L20.9,152.1c0.449,0.242,1.001,0.194,1.406-0.121c0.282-0.219,0.464-0.539,0.511-0.899c0.047-0.36-0.046-0.717-0.261-1.006
	l-1.264-1.689l1.25-0.204c0.14-0.023,0.275-0.068,0.401-0.136l0.945-0.504c0.057,0.157,0.13,0.311,0.221,0.459l2.593,4.22
	c0.081,0.133,0.177,0.251,0.277,0.361L25.389,154.735z M30.108,151.233c-0.084,0.381-0.307,0.706-0.628,0.914
	c-0.663,0.431-1.544,0.226-1.963-0.455l-2.593-4.22c-0.419-0.682-0.22-1.586,0.444-2.016c0.321-0.208,0.703-0.276,1.073-0.19
	c0.371,0.086,0.687,0.315,0.89,0.646l2.594,4.22C30.126,150.461,30.192,150.852,30.108,151.233z"/>
<g>
	<path class="st1" d="M26.165,316.872l-3.04-3.041c-0.094-0.094-0.221-0.146-0.354-0.146s-0.26,0.053-0.354,0.146l-11.642,11.643
		c-0.094,0.094-0.146,0.221-0.146,0.353l-0.006,3.047c0,0.133,0.052,0.261,0.146,0.354c0.094,0.094,0.221,0.146,0.354,0.146
		c0,0,0.001,0,0.001,0l3.046-0.007c0.132,0,0.259-0.053,0.353-0.146l11.642-11.642C26.36,317.384,26.36,317.067,26.165,316.872z
		 M20.239,317.424l2.334,2.333l-7.235,7.234l-2.333-2.333L20.239,317.424z M13.962,328.367l-2.338,0.006l0.005-2.338l0.67-0.67
		l2.333,2.333L13.962,328.367z M23.28,319.05l-2.334-2.333l1.825-1.825l2.333,2.334L23.28,319.05z"/>
	<path class="st1" d="M25.214,318.971c-0.276,0-0.5,0.224-0.5,0.5l0.001,11.265H9.286v-15.471h11.233c0.276,0,0.5-0.224,0.5-0.5
		s-0.224-0.5-0.5-0.5H8.786c-0.276,0-0.5,0.224-0.5,0.5v16.471c0,0.276,0.224,0.5,0.5,0.5h16.429c0.133,0,0.26-0.053,0.354-0.146
		s0.146-0.221,0.146-0.354l-0.001-11.765C25.714,319.194,25.49,318.971,25.214,318.971z"/>
</g>
<g>
	<rect x="12.25" y="254.25" class="st1" width="7.5" height="1"/>
	<rect x="12.25" y="257.75" class="st1" width="7.5" height="1"/>
	<rect x="12.25" y="250.75" class="st1" width="7.5" height="1"/>
	<path class="st1" d="M24.25,249.25v-0.923l-3.438-4.077H7.75v19.5h2.5v2h16v-16.5H24.25z M22.877,248.25H20.75v-2.523
		L22.877,248.25z M8.75,262.75v-17.5h11v4h3.5v1v12.5h-12h-1H8.75z M25.25,264.75h-14v-1h13v-13.5h1V264.75z"/>
</g>
<g>
	<path class="st1" d="M17,79.309l1.675,3.395l3.746,0.544l-2.711,2.642l0.64,3.731L17,87.86l-0.465,0.245l-2.885,1.517l0.64-3.731
		l-2.711-2.642l3.746-0.544L17,79.309 M17,77.049l-2.339,4.74l-5.231,0.76l3.785,3.69l-0.894,5.21L17,88.99l4.679,2.46l-0.894-5.21
		l3.785-3.69l-5.231-0.76L17,77.049L17,77.049z"/>
	<path class="st1" d="M27.5,85c0,5.799-4.701,10.5-10.5,10.5S6.5,90.799,6.5,85S11.201,74.5,17,74.5S27.5,79.201,27.5,85z M17,75.5
		c-5.247,0-9.5,4.253-9.5,9.5s4.253,9.5,9.5,9.5s9.5-4.253,9.5-9.5S22.247,75.5,17,75.5z"/>
</g>
<path class="st1" d="M18,42h8v8h-8V42z M19,49h6v-6h-6V49z"/>
<path class="st1" d="M8,52h8v8H8V52z M9,59h6v-6H9V59z"/>
<path class="st1" d="M8,42h8v8H8V42z M9,49h6v-6H9V49z"/>
<g>
	<polygon class="st1" points="20,54 21,54 21,53 21,52 20,52 19,52 18,52 18,53 18,54 19,54 	"/>
	<polygon class="st1" points="25,52 24,52 23,52 22,52 22,53 23,53 24,53 24,54 23,54 23,55 23,56 23,57 22,57 21,57 21,56 21,55 
		20,55 19,55 19,56 20,56 20,57 20,58 20,59 19,59 18,59 18,60 19,60 20,60 21,60 22,60 22,59 22,58 23,58 24,58 25,58 25,57 24,57 
		24,56 24,55 25,55 26,55 26,54 26,53 26,52 	"/>
	<rect x="25" y="59" class="st1" width="1" height="1"/>
</g>
<path class="st1" d="M10,44v4h4v-4H10z M13,47h-2v-2h2V47z"/>
<path class="st1" d="M10,54v4h4v-4H10z M13,57h-2v-2h2V57z"/>
<path class="st1" d="M20,44v4h4v-4H20z M23,47h-2v-2h2V47z"/>
</svg>
