<svg enable-background="new 0 0 30 55" viewBox="0 0 30 55" preserveAspectRatio="none" xmlns="http://www.w3.org/2000/svg"><path d="m15 44.8c1.4 0 2.5 1.1 2.5 2.5s-1.1 2.5-2.5 2.5-2.5-1.1-2.5-2.5 1.1-2.5 2.5-2.5z" fill="#f7941d"/><path d="m14.7 40.5c-.2-.4-.3-.4-.5-.8-3.3-6.3-14.2-17.2-14.2-24.4 0-8.3 6.7-15 15-15l0 0c8.3 0 15 6.7 15 15 0 7.2-10.9 18.1-14.1 24.4-.2.4-.3.4-.5.8-.2.3-.6.3-.7 0z" fill="#f7941d"/><path d="m15 12.6c1.4 0 2.6 1.2 2.6 2.6s-1.2 2.6-2.6 2.6-2.6-1.2-2.6-2.6 1.2-2.6 2.6-2.6m0-5c-4.2 0-7.6 3.4-7.6 7.6s3.4 7.6 7.6 7.6 7.6-3.4 7.6-7.6-3.4-7.6-7.6-7.6z" fill="#fff"/></svg>